<svg version="1.1" id="Layer_1" xmlns="http://www.w3.org/2000/svg" xmlns:xlink="http://www.w3.org/1999/xlink" x="0px" y="0px"
	 width="100%" viewBox="0 0 820 227" enable-background="new 0 0 820 227" xml:space="preserve">
<path fill="#FEFEFE" opacity="1.000000" stroke="none" 
	d="
M593.000000,228.000000 
	C395.380371,228.000000 198.260757,228.000000 1.070565,228.000000 
	C1.070565,152.398483 1.070565,76.796890 1.070565,1.097646 
	C274.333313,1.097646 547.666626,1.097646 820.972656,1.097646 
	C820.972656,76.739296 820.972656,152.369659 820.972656,228.000000 
	C745.130188,228.000000 669.315063,228.000000 593.000000,228.000000 
M121.385841,84.515503 
	C132.663513,77.640068 143.941177,70.764633 155.331360,63.820606 
	C154.704529,62.948566 154.510071,62.416359 154.132339,62.189953 
	C131.743195,48.770672 109.360573,35.339905 86.874832,22.084097 
	C85.700012,21.391516 83.379059,21.713701 82.032356,22.412586 
	C77.611221,24.706970 73.382927,27.375547 69.099335,29.931864 
	C51.824280,40.241108 34.560059,50.568516 17.280994,60.871033 
	C15.067399,62.190876 13.476739,63.782391 16.539310,65.591835 
	C27.117201,71.841515 37.804527,77.905968 48.050758,84.646873 
	C45.467812,86.414078 42.957439,88.300392 40.288593,89.926628 
	C31.562569,95.243767 22.778824,100.466194 13.036143,106.313934 
	C25.326420,113.615692 36.789570,120.426056 47.902916,127.825272 
	C36.570431,134.837601 25.237947,141.849945 13.598083,149.052475 
	C14.699446,149.924820 15.175231,150.395737 15.732958,150.729874 
	C37.848568,163.979218 59.942375,177.265839 82.164482,190.334305 
	C83.534447,191.139954 86.305710,190.862137 87.781013,189.994003 
	C109.283478,177.341141 130.680267,164.508591 152.083664,151.687820 
	C153.268005,150.978378 154.289642,149.997360 155.757950,148.853897 
	C151.750732,146.428894 148.330658,144.408066 144.959183,142.309174 
	C136.936371,137.314621 128.936554,132.283142 121.621567,127.004448 
	C132.889420,120.254738 144.157272,113.505028 156.216614,106.281197 
	C143.771561,98.784744 132.360657,91.911232 121.385841,84.515503 
M221.926086,125.469681 
	C221.926086,128.580093 221.926086,131.690506 221.926086,134.838379 
	C230.252579,134.838379 237.962646,134.838379 246.231400,134.838379 
	C246.231400,124.386986 246.231400,114.325584 246.231400,104.334991 
	C252.066116,103.268967 255.344147,105.946434 257.713013,110.217155 
	C261.753021,117.500694 265.710876,124.830254 269.810913,132.079590 
	C270.483917,133.269547 271.683258,135.007126 272.680542,135.035385 
	C281.060852,135.272781 289.450806,135.170563 299.267670,135.170563 
	C290.701385,123.192314 288.632263,108.507111 275.139099,101.194710 
	C276.963562,100.411148 278.642578,99.747055 280.273285,98.980247 
	C289.414612,94.681747 293.631073,85.999771 292.026154,74.842041 
	C290.771057,66.116455 284.674774,59.454365 274.844604,58.907955 
	C257.587311,57.948719 240.262848,58.195591 222.966141,57.966881 
	C222.716690,57.963585 222.462189,58.343601 221.926056,58.771236 
	C221.926056,80.526672 221.926056,102.503059 221.926086,125.469681 
M606.232178,131.874619 
	C615.193604,127.462456 621.415771,120.328552 622.699219,110.602859 
	C623.879395,101.659363 624.011047,92.270691 622.658813,83.373878 
	C620.770203,70.948425 613.418396,60.951530 600.547974,59.282196 
	C584.822510,57.242569 568.765320,57.760967 552.623291,57.164738 
	C552.623291,83.797462 552.623291,109.339966 552.623291,135.244278 
	C564.461731,135.244278 575.959229,135.586060 587.422180,135.105255 
	C593.479065,134.851196 599.475708,133.164429 606.232178,131.874619 
M317.783203,72.503479 
	C317.783203,93.253067 317.783203,114.002655 317.783203,134.957306 
	C339.977936,134.957306 361.541809,134.957306 383.371368,134.957306 
	C383.371368,128.934174 383.371368,123.187851 383.371368,116.831863 
	C369.636932,116.831863 356.084717,116.831863 342.429718,116.831863 
	C342.429718,111.847466 342.429718,107.479668 342.429718,102.669189 
	C354.891754,102.669189 366.980774,102.669189 379.015808,102.669189 
	C379.015808,97.138565 379.015808,92.070282 379.015808,86.509796 
	C366.589417,86.509796 354.509857,86.509796 342.298431,86.509796 
	C342.298431,82.914810 342.298431,79.822746 342.298431,76.060196 
	C355.742676,76.060196 368.957275,76.060196 382.018921,76.060196 
	C382.018921,69.641113 382.018921,63.902653 382.018921,58.149696 
	C360.454254,58.149696 339.255920,58.149696 317.783051,58.149696 
	C317.783051,62.879585 317.783051,67.192772 317.783203,72.503479 
M424.717896,134.950317 
	C433.970428,135.034653 443.351868,136.125458 452.444458,134.961014 
	C465.211304,133.325989 473.817169,123.264839 474.572815,111.463112 
	C475.295227,100.179550 469.025757,92.055870 455.739014,87.814079 
	C448.478302,85.496086 440.931335,84.067169 433.694336,81.687347 
	C431.796112,81.063141 429.102081,78.079948 429.385254,76.726501 
	C429.804901,74.720627 432.277313,72.262421 434.363190,71.646049 
	C441.729584,69.469292 446.295288,72.381897 449.761230,80.916168 
	C456.967773,80.430962 464.318604,79.936043 471.923309,79.424026 
	C470.876923,71.422279 468.277710,64.651688 461.260010,61.278423 
	C446.621033,54.241734 431.397980,53.978523 417.079987,61.578579 
	C403.002014,69.051231 403.144531,88.210693 416.842194,96.293625 
	C420.939453,98.711395 425.595734,100.283722 430.140686,101.813210 
	C435.000885,103.448769 440.085754,104.409279 444.970520,105.981529 
	C448.495667,107.116173 451.308441,109.397049 451.033600,113.545074 
	C450.750000,117.824669 447.747803,119.996750 443.851898,120.697678 
	C441.626526,121.098061 439.207611,121.075226 436.977509,120.675606 
	C429.938660,119.414322 427.867859,113.739609 426.375214,107.430183 
	C418.747406,108.004028 411.397980,108.556931 404.061249,109.108879 
	C404.774384,122.363846 411.815704,131.222916 424.717896,134.950317 
M712.335693,86.718895 
	C706.311096,102.686340 700.286560,118.653778 694.026672,135.244904 
	C699.632202,135.244904 704.441956,135.244904 709.251709,135.244904 
	C718.539917,135.244888 718.670227,135.282166 721.161804,126.572334 
	C722.051392,123.462540 723.503296,122.352585 726.739197,122.536049 
	C731.722473,122.818565 736.734131,122.562500 741.732788,122.619598 
	C751.959961,122.736397 749.340149,121.421318 752.400085,130.496078 
	C752.972595,132.193970 754.262939,134.922562 755.332520,134.976288 
	C763.036560,135.363373 770.769104,135.183624 779.041870,135.183624 
	C769.389648,109.614624 760.084595,84.843536 750.574280,60.151524 
	C750.124268,58.983150 747.875671,57.887634 746.423462,57.831856 
	C739.933960,57.582581 733.425293,57.857269 726.932190,57.660591 
	C724.121765,57.575462 722.815674,58.559662 721.885498,61.196487 
	C718.949707,69.518356 715.736694,77.742393 712.335693,86.718895 
M523.321655,65.526550 
	C523.321655,63.086449 523.321655,60.646343 523.321655,58.183437 
	C514.927795,58.183437 507.093048,58.183437 499.331238,58.183437 
	C499.331238,84.014786 499.331238,109.389908 499.331238,134.978577 
	C507.356201,134.978577 515.085449,134.978577 523.321716,134.978577 
	C523.321716,111.987999 523.321716,89.253265 523.321655,65.526550 
M673.258484,70.505486 
	C673.258484,66.399361 673.258484,62.293240 673.258484,58.187717 
	C664.864929,58.187717 657.029785,58.187717 649.286438,58.187717 
	C649.286438,84.018806 649.286438,109.390053 649.286438,134.976074 
	C657.313660,134.976074 665.039673,134.976074 673.258606,134.976074 
	C673.258606,113.647049 673.258606,92.575966 673.258484,70.505486 
z"/>
<path fill="#12B982" opacity="1.000000" stroke="none" 
	d="
M120.927444,127.266586 
	C128.936554,132.283142 136.936371,137.314621 144.959183,142.309174 
	C148.330658,144.408066 151.750732,146.428894 155.757950,148.853897 
	C154.289642,149.997360 153.268005,150.978378 152.083664,151.687820 
	C130.680267,164.508591 109.283478,177.341141 87.781013,189.994003 
	C86.305710,190.862137 83.534447,191.139954 82.164482,190.334305 
	C59.942375,177.265839 37.848568,163.979218 15.732958,150.729874 
	C15.175231,150.395737 14.699446,149.924820 13.598083,149.052475 
	C25.237947,141.849945 36.570431,134.837601 48.425957,127.476913 
	C60.596813,120.286797 72.244621,113.445023 84.207054,106.637497 
	C84.727562,106.631477 84.933456,106.591209 85.447784,106.728607 
	C97.479958,113.693047 109.203697,120.479820 120.927444,127.266586 
z"/>
<path fill="#ACB0B6" opacity="1.000000" stroke="none" 
	d="
M48.450184,84.040939 
	C37.804527,77.905968 27.117201,71.841515 16.539310,65.591835 
	C13.476739,63.782391 15.067399,62.190876 17.280994,60.871033 
	C34.560059,50.568516 51.824280,40.241108 69.099335,29.931864 
	C73.382927,27.375547 77.611221,24.706970 82.032356,22.412586 
	C83.379059,21.713701 85.700012,21.391516 86.874832,22.084097 
	C109.360573,35.339905 131.743195,48.770672 154.132339,62.189953 
	C154.510071,62.416359 154.704529,62.948566 155.331360,63.820606 
	C143.941177,70.764633 132.663513,77.640068 120.907341,84.671394 
	C119.931458,84.589516 119.434082,84.351746 118.729263,83.844177 
	C108.418999,77.577179 98.377510,71.471481 88.151901,65.691513 
	C86.483055,64.748215 83.490646,64.351051 81.977287,65.217064 
	C71.503517,71.210648 61.259472,77.605644 50.625340,83.904655 
	C49.689415,83.972038 49.069801,84.006493 48.450184,84.040939 
z"/>
<path fill="#303A4B" opacity="1.000000" stroke="none" 
	d="
M221.926071,124.974564 
	C221.926056,102.503059 221.926056,80.526672 221.926056,58.771236 
	C222.462189,58.343601 222.716690,57.963585 222.966141,57.966881 
	C240.262848,58.195591 257.587311,57.948719 274.844604,58.907955 
	C284.674774,59.454365 290.771057,66.116455 292.026154,74.842041 
	C293.631073,85.999771 289.414612,94.681747 280.273285,98.980247 
	C278.642578,99.747055 276.963562,100.411148 275.139099,101.194710 
	C288.632263,108.507111 290.701385,123.192314 299.267670,135.170563 
	C289.450806,135.170563 281.060852,135.272781 272.680542,135.035385 
	C271.683258,135.007126 270.483917,133.269547 269.810913,132.079590 
	C265.710876,124.830254 261.753021,117.500694 257.713013,110.217155 
	C255.344147,105.946434 252.066116,103.268967 246.231400,104.334991 
	C246.231400,114.325584 246.231400,124.386986 246.231400,134.838379 
	C237.962646,134.838379 230.252579,134.838379 221.926086,134.838379 
	C221.926086,131.690506 221.926086,128.580093 221.926071,124.974564 
M266.407471,86.014381 
	C269.771149,80.451889 268.518707,75.491417 262.749176,74.574554 
	C257.358765,73.717941 251.725174,74.391365 246.282639,74.391365 
	C246.282639,79.323761 246.282639,83.894203 246.282639,89.976379 
	C253.157974,88.770966 259.506683,87.657875 266.407471,86.014381 
z"/>
<path fill="#323B4C" opacity="1.000000" stroke="none" 
	d="
M605.865845,131.999557 
	C599.475708,133.164429 593.479065,134.851196 587.422180,135.105255 
	C575.959229,135.586060 564.461731,135.244278 552.623291,135.244278 
	C552.623291,109.339966 552.623291,83.797462 552.623291,57.164738 
	C568.765320,57.760967 584.822510,57.242569 600.547974,59.282196 
	C613.418396,60.951530 620.770203,70.948425 622.658813,83.373878 
	C624.011047,92.270691 623.879395,101.659363 622.699219,110.602859 
	C621.415771,120.328552 615.193604,127.462456 605.865845,131.999557 
M600.127808,97.471458 
	C600.015137,94.976295 600.067322,92.460609 599.759705,89.989716 
	C598.734619,81.756218 595.159607,77.646729 587.468567,76.471924 
	C584.094788,75.956581 580.576782,76.385208 576.888062,76.385208 
	C576.888062,89.903740 576.888062,103.118484 576.888062,116.806793 
	C579.839539,116.806793 582.469666,116.852196 585.097839,116.798637 
	C594.636475,116.604286 599.055054,112.454903 599.901855,102.910286 
	C600.034180,101.418076 600.052246,99.915726 600.127808,97.471458 
z"/>
<path fill="#2F394A" opacity="1.000000" stroke="none" 
	d="
M317.783142,72.004723 
	C317.783051,67.192772 317.783051,62.879585 317.783051,58.149696 
	C339.255920,58.149696 360.454254,58.149696 382.018921,58.149696 
	C382.018921,63.902653 382.018921,69.641113 382.018921,76.060196 
	C368.957275,76.060196 355.742676,76.060196 342.298431,76.060196 
	C342.298431,79.822746 342.298431,82.914810 342.298431,86.509796 
	C354.509857,86.509796 366.589417,86.509796 379.015808,86.509796 
	C379.015808,92.070282 379.015808,97.138565 379.015808,102.669189 
	C366.980774,102.669189 354.891754,102.669189 342.429718,102.669189 
	C342.429718,107.479668 342.429718,111.847466 342.429718,116.831863 
	C356.084717,116.831863 369.636932,116.831863 383.371368,116.831863 
	C383.371368,123.187851 383.371368,128.934174 383.371368,134.957306 
	C361.541809,134.957306 339.977936,134.957306 317.783203,134.957306 
	C317.783203,114.002655 317.783203,93.253067 317.783142,72.004723 
z"/>
<path fill="#323C4D" opacity="1.000000" stroke="none" 
	d="
M424.331970,134.817322 
	C411.815704,131.222916 404.774384,122.363846 404.061249,109.108879 
	C411.397980,108.556931 418.747406,108.004028 426.375214,107.430183 
	C427.867859,113.739609 429.938660,119.414322 436.977509,120.675606 
	C439.207611,121.075226 441.626526,121.098061 443.851898,120.697678 
	C447.747803,119.996750 450.750000,117.824669 451.033600,113.545074 
	C451.308441,109.397049 448.495667,107.116173 444.970520,105.981529 
	C440.085754,104.409279 435.000885,103.448769 430.140686,101.813210 
	C425.595734,100.283722 420.939453,98.711395 416.842194,96.293625 
	C403.144531,88.210693 403.002014,69.051231 417.079987,61.578579 
	C431.397980,53.978523 446.621033,54.241734 461.260010,61.278423 
	C468.277710,64.651688 470.876923,71.422279 471.923309,79.424026 
	C464.318604,79.936043 456.967773,80.430962 449.761230,80.916168 
	C446.295288,72.381897 441.729584,69.469292 434.363190,71.646049 
	C432.277313,72.262421 429.804901,74.720627 429.385254,76.726501 
	C429.102081,78.079948 431.796112,81.063141 433.694336,81.687347 
	C440.931335,84.067169 448.478302,85.496086 455.739014,87.814079 
	C469.025757,92.055870 475.295227,100.179550 474.572815,111.463112 
	C473.817169,123.264839 465.211304,133.325989 452.444458,134.961014 
	C443.351868,136.125458 433.970428,135.034653 424.331970,134.817322 
z"/>
<path fill="#323B4C" opacity="1.000000" stroke="none" 
	d="
M712.483337,86.361595 
	C715.736694,77.742393 718.949707,69.518356 721.885498,61.196487 
	C722.815674,58.559662 724.121765,57.575462 726.932190,57.660591 
	C733.425293,57.857269 739.933960,57.582581 746.423462,57.831856 
	C747.875671,57.887634 750.124268,58.983150 750.574280,60.151524 
	C760.084595,84.843536 769.389648,109.614624 779.041870,135.183624 
	C770.769104,135.183624 763.036560,135.363373 755.332520,134.976288 
	C754.262939,134.922562 752.972595,132.193970 752.400085,130.496078 
	C749.340149,121.421318 751.959961,122.736397 741.732788,122.619598 
	C736.734131,122.562500 731.722473,122.818565 726.739197,122.536049 
	C723.503296,122.352585 722.051392,123.462540 721.161804,126.572334 
	C718.670227,135.282166 718.539917,135.244888 709.251709,135.244904 
	C704.441956,135.244904 699.632202,135.244904 694.026672,135.244904 
	C700.286560,118.653778 706.311096,102.686340 712.483337,86.361595 
M741.268433,93.163589 
	C739.774658,88.487381 738.280945,83.811172 736.787170,79.134964 
	C736.458008,79.109756 736.128845,79.084549 735.799622,79.059341 
	C733.191223,87.583939 730.582825,96.108536 727.924622,104.795937 
	C733.879272,104.795937 739.059570,104.795937 744.695374,104.795937 
	C743.558228,100.870178 742.552185,97.396957 741.268433,93.163589 
z"/>
<path fill="#303A4A" opacity="1.000000" stroke="none" 
	d="
M523.321655,66.022545 
	C523.321716,89.253265 523.321716,111.987999 523.321716,134.978577 
	C515.085449,134.978577 507.356201,134.978577 499.331238,134.978577 
	C499.331238,109.389908 499.331238,84.014786 499.331238,58.183437 
	C507.093048,58.183437 514.927795,58.183437 523.321655,58.183437 
	C523.321655,60.646343 523.321655,63.086449 523.321655,66.022545 
z"/>
<path fill="#30394A" opacity="1.000000" stroke="none" 
	d="
M673.258545,71.005180 
	C673.258606,92.575966 673.258606,113.647049 673.258606,134.976074 
	C665.039673,134.976074 657.313660,134.976074 649.286438,134.976074 
	C649.286438,109.390053 649.286438,84.018806 649.286438,58.187717 
	C657.029785,58.187717 664.864929,58.187717 673.258484,58.187717 
	C673.258484,62.293240 673.258484,66.399361 673.258545,71.005180 
z"/>
<path fill="#59616F" opacity="1.000000" stroke="none" 
	d="
M48.250473,84.343903 
	C49.069801,84.006493 49.689415,83.972038 50.650169,84.284599 
	C51.721584,85.618134 52.243950,86.947105 53.215172,87.536774 
	C60.707222,92.085526 68.322456,96.431221 75.819481,100.971985 
	C78.620018,102.668205 81.207703,104.715836 83.892433,106.603249 
	C72.244621,113.445023 60.596813,120.286797 48.600861,127.182487 
	C36.789570,120.426056 25.326420,113.615692 13.036143,106.313934 
	C22.778824,100.466194 31.562569,95.243767 40.288593,89.926628 
	C42.957439,88.300392 45.467812,86.414078 48.250473,84.343903 
z"/>
<path fill="#59616F" opacity="1.000000" stroke="none" 
	d="
M118.936707,84.113983 
	C119.434082,84.351746 119.931458,84.589516 120.689301,84.932503 
	C132.360657,91.911232 143.771561,98.784744 156.216614,106.281197 
	C144.157272,113.505028 132.889420,120.254738 121.274506,127.135513 
	C109.203697,120.479820 97.479958,113.693047 85.622444,106.491974 
	C91.311760,102.559196 97.241920,99.203979 102.927246,95.475433 
	C108.395515,91.889229 113.610458,87.916740 118.936707,84.113983 
z"/>
<path fill="#47505F" opacity="1.000000" stroke="none" 
	d="
M118.729263,83.844185 
	C113.610458,87.916740 108.395515,91.889229 102.927246,95.475433 
	C97.241920,99.203979 91.311760,102.559196 85.314011,106.314301 
	C84.933456,106.591209 84.727562,106.631477 84.207054,106.637497 
	C81.207703,104.715836 78.620018,102.668205 75.819481,100.971985 
	C68.322456,96.431221 60.707222,92.085526 53.215172,87.536774 
	C52.243950,86.947105 51.721584,85.618134 50.966476,84.251671 
	C61.259472,77.605644 71.503517,71.210648 81.977287,65.217064 
	C83.490646,64.351051 86.483055,64.748215 88.151901,65.691513 
	C98.377510,71.471481 108.418999,77.577179 118.729263,83.844185 
z"/>
<path fill="#F6F7F7" opacity="1.000000" stroke="none" 
	d="
M266.131409,86.279587 
	C259.506683,87.657875 253.157974,88.770966 246.282639,89.976379 
	C246.282639,83.894203 246.282639,79.323761 246.282639,74.391365 
	C251.725174,74.391365 257.358765,73.717941 262.749176,74.574554 
	C268.518707,75.491417 269.771149,80.451889 266.131409,86.279587 
z"/>
<path fill="#FAFAFA" opacity="1.000000" stroke="none" 
	d="
M600.125488,97.944763 
	C600.052246,99.915726 600.034180,101.418076 599.901855,102.910286 
	C599.055054,112.454903 594.636475,116.604286 585.097839,116.798637 
	C582.469666,116.852196 579.839539,116.806793 576.888062,116.806793 
	C576.888062,103.118484 576.888062,89.903740 576.888062,76.385208 
	C580.576782,76.385208 584.094788,75.956581 587.468567,76.471924 
	C595.159607,77.646729 598.734619,81.756218 599.759705,89.989716 
	C600.067322,92.460609 600.015137,94.976295 600.125488,97.944763 
z"/>
<path fill="#F3F4F5" opacity="1.000000" stroke="none" 
	d="
M741.407288,93.543655 
	C742.552185,97.396957 743.558228,100.870178 744.695374,104.795937 
	C739.059570,104.795937 733.879272,104.795937 727.924622,104.795937 
	C730.582825,96.108536 733.191223,87.583939 735.799622,79.059341 
	C736.128845,79.084549 736.458008,79.109756 736.787170,79.134964 
	C738.280945,83.811172 739.774658,88.487381 741.407288,93.543655 
z"/>
</svg>